<svg xmlns="http://www.w3.org/2000/svg" xmlns:xlink="http://www.w3.org/1999/xlink" width="1920" zoomAndPan="magnify" viewBox="0 0 1440 809.999993" height="1080" preserveAspectRatio="xMidYMid meet" version="1.0"><defs><clipPath id="16cf929234"><path d="M 333.222656 158.15625 L 1045.722656 158.15625 L 1045.722656 632 L 333.222656 632 Z M 333.222656 158.15625 " clip-rule="nonzero"/></clipPath><clipPath id="d00dfdc235"><path d="M 675 685 L 703 685 L 703 789.65625 L 675 789.65625 Z M 675 685 " clip-rule="nonzero"/></clipPath><clipPath id="7197955f49"><path d="M 551.308594 165 L 682 165 L 682 296.128906 L 551.308594 296.128906 Z M 551.308594 165 " clip-rule="nonzero"/></clipPath><clipPath id="2fc3b16c9f"><path d="M 551.308594 20.128906 L 682 20.128906 L 682 151 L 551.308594 151 Z M 551.308594 20.128906 " clip-rule="nonzero"/></clipPath><clipPath id="7aa525a2ee"><path d="M 696 20.128906 L 827.308594 20.128906 L 827.308594 151 L 696 151 Z M 696 20.128906 " clip-rule="nonzero"/></clipPath><clipPath id="9bce5c829d"><path d="M 696 165 L 827.308594 165 L 827.308594 296.128906 L 696 296.128906 Z M 696 165 " clip-rule="nonzero"/></clipPath></defs><g clip-path="url(#16cf929234)"><path fill="#e01e5a" d="M 333.222656 158.550781 C 335.96875 169.054688 338.144531 179.738281 341.550781 190.027344 C 348.261719 210.277344 354.515625 230.785156 363.0625 250.269531 C 371.878906 270.375 387.625 284.761719 406.933594 295.695312 C 477.058594 335.382812 546.933594 375.546875 616.882812 415.539062 C 618.925781 416.714844 620.898438 418.03125 622.625 419.765625 C 539.058594 381.75 457.753906 339.484375 378.042969 290.503906 C 379.15625 293.457031 379.511719 294.996094 380.257812 296.335938 C 393 319.300781 405.972656 342.128906 418.542969 365.191406 C 430.070312 386.324219 448.582031 395.375 471.601562 398.863281 C 510.191406 404.703125 548.613281 411.679688 587.109375 418.210938 C 599.191406 420.265625 611.269531 422.410156 623.285156 424.976562 C 563.011719 422.472656 503.332031 414.8125 443.207031 406.027344 C 446.644531 408.886719 450.121094 411.710938 453.527344 414.613281 C 467.808594 426.789062 482.480469 438.554688 496.226562 451.332031 C 507.234375 461.550781 518.582031 463.394531 532.65625 458.605469 C 561.855469 448.679688 591.40625 439.738281 620.8125 430.394531 C 621.78125 430.089844 622.789062 429.90625 623.933594 430.191406 C 612.964844 435.320312 601.855469 440.1875 591.050781 445.617188 C 575.722656 453.3125 562.050781 463.414062 550.445312 476.070312 C 538.472656 489.136719 536.644531 503.425781 546.707031 517.734375 C 560.269531 537.011719 575.007812 555.484375 590.019531 574.171875 C 576.78125 518.199219 589.460938 469.953125 631.976562 430.410156 C 630.847656 432.511719 629.730469 434.648438 628.578125 436.757812 C 615.109375 461.445312 603.457031 486.824219 599.496094 515.050781 C 596.667969 535.070312 599.703125 553.480469 615.1875 568 C 631.777344 583.558594 648.628906 598.835938 665.339844 614.257812 C 671.613281 620.039062 677.804688 625.910156 684.5 631.554688 C 649.308594 569.074219 634.136719 501.730469 635.957031 430.144531 C 644.679688 458.710938 653.421875 487.273438 662.121094 515.855469 C 670.808594 544.398438 679.4375 572.960938 689.679688 601.488281 C 707.050781 544.375 724.4375 487.25 741.808594 430.121094 C 743.667969 501.558594 728.585938 568.78125 693.75 631.59375 C 694.867188 630.644531 696.003906 629.714844 697.082031 628.71875 C 698.21875 627.671875 699.242188 626.503906 700.394531 625.46875 C 717.726562 609.726562 734.539062 593.351562 752.5625 578.4375 C 778.277344 557.179688 783.953125 531.046875 775.507812 499.988281 C 769.445312 477.671875 760.273438 456.800781 749.171875 436.660156 C 748.21875 434.910156 747.21875 433.199219 746.308594 431.4375 C 746.136719 431.121094 746.320312 430.632812 746.382812 429.371094 C 766.511719 448.160156 780.515625 469.976562 787.675781 496.050781 C 794.78125 521.996094 793.890625 547.902344 788.023438 574.289062 C 797.375 562.414062 806.789062 550.574219 816.054688 538.613281 C 820.644531 532.6875 825.089844 526.625 829.410156 520.488281 C 841.050781 504.003906 839.898438 489.246094 825.949219 474.53125 C 809.359375 457.042969 788.859375 445.507812 766.953125 436.179688 C 762.523438 434.300781 758.105469 432.375 754.046875 429.410156 C 771.304688 434.5 788.636719 439.375 805.789062 444.757812 C 818.417969 448.703125 831.066406 452.734375 843.265625 457.800781 C 858.304688 464.027344 870.53125 461.722656 882.527344 450.457031 C 897.5 436.425781 913.679688 423.695312 929.324219 410.394531 C 930.980469 408.980469 932.628906 407.558594 934.109375 405.492188 C 874.484375 414.726562 814.800781 422.511719 754.457031 424.613281 C 777.171875 420.523438 799.867188 416.230469 822.636719 412.367188 C 852.855469 407.257812 883.15625 402.558594 913.410156 397.523438 C 931.730469 394.476562 946.921875 385.960938 956.386719 369.605469 C 970.746094 344.777344 984.472656 319.582031 998.453125 294.527344 C 998.839844 293.835938 998.972656 293.015625 999.808594 290.472656 C 920.113281 339.421875 838.738281 381.75 754.730469 419.074219 C 776.613281 406.25 798.359375 393.191406 820.398438 380.644531 C 869.316406 352.773438 918.105469 324.65625 967.503906 297.652344 C 992.59375 283.9375 1010.832031 264.703125 1020.453125 238.257812 C 1029.921875 212.257812 1037.398438 185.53125 1045.742188 159.121094 C 1045.078125 158.828125 1044.421875 158.542969 1043.753906 158.25 C 1042.949219 159.007812 1041.949219 159.640625 1041.339844 160.539062 C 1003.703125 215.304688 954.25 256.9375 897.285156 290.292969 C 859.753906 312.277344 822.449219 334.648438 784.859375 356.527344 C 766.410156 367.269531 757.671875 384.882812 750.078125 403.425781 C 747.25 410.335938 745.199219 417.566406 742.507812 425.464844 C 732.574219 412.332031 727.464844 398.335938 728.246094 382.199219 C 728.539062 376.066406 729.292969 369.558594 727.6875 363.820312 C 722.425781 345.03125 707.640625 336.800781 689.972656 332.730469 C 679.878906 330.402344 670.359375 331.339844 662.035156 338.71875 C 660.070312 340.453125 656.285156 340.335938 653.296875 340.652344 C 640.429688 342.0625 634.664062 348.179688 636.242188 358.960938 C 655.378906 353.796875 668.625 364.578125 667.917969 384.777344 C 667.199219 405.105469 653.054688 422.964844 635.3125 425.550781 C 632.726562 417.96875 630.367188 410.234375 627.488281 402.691406 C 619.050781 380.613281 605.972656 362.976562 584.523438 350.996094 C 545.769531 329.382812 507.792969 306.390625 469.722656 283.585938 C 416.910156 251.972656 371.941406 211.753906 336.773438 160.988281 C 336.0625 159.964844 335.210938 159.023438 333.222656 158.550781 Z M 672.402344 348.722656 L 672.570312 343.667969 L 686.375 347.035156 L 686.265625 348.519531 Z M 672.402344 348.722656 " fill-opacity="1" fill-rule="nonzero"/></g><path fill="#e01e5a" d="M 573.609375 732.414062 C 587.765625 732.414062 600.507812 733.101562 613.136719 732.195312 C 623.351562 731.46875 631.90625 725.992188 638.65625 718.210938 C 655.542969 698.753906 665.457031 675.8125 671.148438 651.027344 C 674.160156 637.898438 665.527344 619.675781 651.351562 607.691406 C 653.746094 613.402344 655.632812 617.894531 657.515625 622.398438 C 663.203125 635.941406 662.269531 648.550781 654.308594 661.367188 C 636.4375 690.144531 611.324219 710.738281 582.457031 727.40625 C 579.886719 728.890625 577.292969 730.332031 573.609375 732.414062 Z M 573.609375 732.414062 " fill-opacity="1" fill-rule="nonzero"/><path fill="#e01e5a" d="M 802.910156 731.941406 C 796.003906 727.769531 788.976562 723.792969 782.210938 719.410156 C 758.800781 704.214844 738.789062 685.691406 723.734375 661.832031 C 715.386719 648.613281 714.527344 635.601562 720.535156 621.648438 C 722.332031 617.46875 724.136719 613.292969 726.140625 608.621094 C 712.414062 617.578125 703.582031 638.71875 707.253906 653.726562 C 712.378906 674.695312 720.96875 694.105469 733.679688 711.695312 C 744.164062 726.191406 757.832031 733.765625 775.972656 733.109375 C 784.875 732.785156 793.808594 733.054688 802.722656 733.054688 C 802.785156 732.675781 802.847656 732.304688 802.910156 731.941406 Z M 802.910156 731.941406 " fill-opacity="1" fill-rule="nonzero"/><g clip-path="url(#d00dfdc235)"><path fill="#e01e5a" d="M 689.222656 789.585938 C 700.355469 773.558594 705.015625 756.695312 700.996094 737.867188 C 697.289062 720.484375 693.582031 703.101562 689.875 685.71875 C 689.332031 685.652344 688.789062 685.589844 688.246094 685.519531 C 687.457031 688.914062 686.621094 692.3125 685.886719 695.714844 C 682.710938 710.320312 679.421875 724.910156 676.433594 739.550781 C 672.949219 756.59375 678.023438 776.398438 689.222656 789.585938 Z M 689.222656 789.585938 " fill-opacity="1" fill-rule="nonzero"/></g><path fill="#e01e5a" d="M 679.671875 657.839844 C 672.144531 674.667969 664.683594 693.230469 655.664062 711.015625 C 646.570312 728.953125 633.496094 744.214844 618.382812 758.21875 C 636.792969 761.847656 656.671875 751.363281 665.054688 733.558594 C 676.652344 708.925781 680.972656 682.851562 679.671875 657.839844 Z M 679.671875 657.839844 " fill-opacity="1" fill-rule="nonzero"/><path fill="#e01e5a" d="M 698.707031 655.753906 C 696.746094 682.378906 701.144531 707.804688 711.898438 731.988281 C 720.21875 750.699219 737.832031 760.59375 759.808594 758.714844 C 728.921875 730.015625 710.085938 695.058594 698.707031 655.753906 Z M 698.707031 655.753906 " fill-opacity="1" fill-rule="nonzero"/><path fill="#e01e5a" d="M 843.738281 643.175781 C 836.832031 639.003906 829.804688 635.027344 823.039062 630.644531 C 799.628906 615.449219 779.617188 596.925781 764.558594 573.066406 C 756.214844 559.847656 755.355469 546.835938 761.363281 532.882812 C 763.160156 528.703125 764.964844 524.527344 766.96875 519.855469 C 753.242188 528.8125 744.410156 549.953125 748.078125 564.960938 C 753.203125 585.933594 761.796875 605.339844 774.507812 622.929688 C 784.988281 637.425781 798.660156 645 816.796875 644.34375 C 825.699219 644.019531 834.632812 644.289062 843.550781 644.289062 C 843.621094 643.917969 843.675781 643.546875 843.738281 643.175781 Z M 843.738281 643.175781 " fill-opacity="1" fill-rule="nonzero"/><path fill="#e01e5a" d="M 739.53125 566.996094 C 737.574219 593.621094 741.972656 619.046875 752.722656 643.230469 C 761.046875 661.941406 778.65625 671.835938 800.632812 669.957031 C 769.753906 641.25 750.921875 606.292969 739.53125 566.996094 Z M 739.53125 566.996094 " fill-opacity="1" fill-rule="nonzero"/><path fill="#e01e5a" d="M 539.785156 643.175781 C 546.691406 639.003906 553.722656 635.027344 560.488281 630.644531 C 583.894531 615.449219 603.90625 596.925781 618.964844 573.066406 C 627.308594 559.847656 628.167969 546.835938 622.160156 532.882812 C 620.363281 528.703125 618.5625 524.527344 616.554688 519.855469 C 630.28125 528.8125 639.113281 549.953125 635.445312 564.960938 C 630.320312 585.933594 621.726562 605.339844 609.015625 622.929688 C 598.535156 637.425781 584.863281 645 566.726562 644.34375 C 557.824219 644.019531 548.890625 644.289062 539.972656 644.289062 C 539.910156 643.917969 539.847656 643.546875 539.785156 643.175781 Z M 539.785156 643.175781 " fill-opacity="1" fill-rule="nonzero"/><path fill="#e01e5a" d="M 644 566.996094 C 645.957031 593.621094 641.558594 619.046875 630.808594 643.230469 C 622.484375 661.941406 604.875 671.835938 582.898438 669.957031 C 613.777344 641.25 632.613281 606.292969 644 566.996094 Z M 644 566.996094 " fill-opacity="1" fill-rule="nonzero"/><path fill="#000000" d="M 672.570312 348.519531 C 677.140625 348.519531 681.707031 348.519531 686.28125 348.519531 C 686.3125 348.023438 686.351562 347.53125 686.382812 347.042969 C 681.824219 346.664062 677.269531 346.285156 672.710938 345.898438 C 672.664062 346.769531 672.617188 347.644531 672.570312 348.519531 Z M 672.570312 348.519531 " fill-opacity="1" fill-rule="nonzero"/><g clip-path="url(#7197955f49)"><path fill="#e01e5a" d="M 609.492188 194.570312 C 609.492188 210.59375 596.539062 223.550781 580.511719 223.550781 C 564.480469 223.550781 551.527344 210.59375 551.527344 194.570312 C 551.527344 178.542969 564.480469 165.585938 580.511719 165.585938 L 609.492188 165.585938 Z M 623.984375 194.570312 C 623.984375 178.542969 636.9375 165.585938 652.964844 165.585938 C 668.992188 165.585938 681.949219 178.542969 681.949219 194.570312 L 681.949219 267.027344 C 681.949219 283.054688 668.992188 296.011719 652.964844 296.011719 C 636.9375 296.011719 623.984375 283.054688 623.984375 267.027344 Z M 623.984375 194.570312 " fill-opacity="1" fill-rule="nonzero"/></g><g clip-path="url(#2fc3b16c9f)"><path fill="#36c5f0" d="M 652.964844 78.203125 C 636.9375 78.203125 623.984375 65.246094 623.984375 49.21875 C 623.984375 33.191406 636.9375 20.238281 652.964844 20.238281 C 668.992188 20.238281 681.949219 33.191406 681.949219 49.21875 L 681.949219 78.203125 Z M 652.964844 92.914062 C 668.992188 92.914062 681.949219 105.867188 681.949219 121.894531 C 681.949219 137.921875 668.992188 150.878906 652.964844 150.878906 L 580.292969 150.878906 C 564.261719 150.878906 551.308594 137.921875 551.308594 121.894531 C 551.308594 105.867188 564.261719 92.914062 580.292969 92.914062 Z M 652.964844 92.914062 " fill-opacity="1" fill-rule="nonzero"/></g><g clip-path="url(#7aa525a2ee)"><path fill="#2eb67d" d="M 769.117188 121.894531 C 769.117188 105.867188 782.074219 92.914062 798.097656 92.914062 C 814.125 92.914062 827.082031 105.867188 827.082031 121.894531 C 827.082031 137.921875 814.125 150.878906 798.097656 150.878906 L 769.117188 150.878906 Z M 754.625 121.894531 C 754.625 137.921875 741.667969 150.878906 725.640625 150.878906 C 709.613281 150.878906 696.65625 137.921875 696.65625 121.894531 L 696.65625 49.21875 C 696.65625 33.191406 709.613281 20.238281 725.640625 20.238281 C 741.667969 20.238281 754.625 33.191406 754.625 49.21875 Z M 754.625 121.894531 " fill-opacity="1" fill-rule="nonzero"/></g><g clip-path="url(#9bce5c829d)"><path fill="#ecb22e" d="M 725.640625 238.042969 C 741.667969 238.042969 754.625 251 754.625 267.027344 C 754.625 283.054688 741.667969 296.011719 725.640625 296.011719 C 709.613281 296.011719 696.65625 283.054688 696.65625 267.027344 L 696.65625 238.042969 Z M 725.640625 223.550781 C 709.613281 223.550781 696.65625 210.59375 696.65625 194.570312 C 696.65625 178.542969 709.613281 165.585938 725.640625 165.585938 L 798.316406 165.585938 C 814.339844 165.585938 827.296875 178.542969 827.296875 194.570312 C 827.296875 210.59375 814.339844 223.550781 798.316406 223.550781 Z M 725.640625 223.550781 " fill-opacity="1" fill-rule="nonzero"/></g></svg>